<svg width="32" height="32" viewBox="0 0 32 32" fill="none" xmlns="http://www.w3.org/2000/svg">
  <!-- Background -->
  <rect width="32" height="32" fill="#f8fafc" />

  <!-- {FSH} centered in 32x32, scaled from viewBox 0 0 40 24 → offset to center -->
  <g transform="translate(1, 7)">
    <!-- { open curly brace -->
    <path
      d="M3,1.5 C1.5,1.5 0.75,2.25 0.75,3.75 L0.75,7.5 C0.75,8.25 0,9 0,9 C0,9 0.75,9.75 0.75,10.5 L0.75,14.25 C0.75,15.75 1.5,16.5 3,16.5"
      stroke="#0f172a"
      stroke-width="1.2"
      stroke-linecap="round"
      fill="none"
    />

    <!-- F -->
    <line x1="6" y1="3" x2="6" y2="15" stroke="#0f172a" stroke-width="1.5" stroke-linecap="round" />
    <line x1="6" y1="3" x2="10.5" y2="3" stroke="#0f172a" stroke-width="1.5" stroke-linecap="round" />
    <line x1="6" y1="9" x2="9.75" y2="9" stroke="#0f172a" stroke-width="1.5" stroke-linecap="round" />

    <!-- S -->
    <polyline
      points="15.75,3 12,3 12,8.25 15.75,8.25 15.75,15 12,15"
      stroke="#0f172a"
      stroke-width="1.5"
      stroke-linecap="round"
      stroke-linejoin="round"
      fill="none"
    />

    <!-- H -->
    <line x1="18" y1="3" x2="18" y2="15" stroke="#0f172a" stroke-width="1.5" stroke-linecap="round" />
    <line x1="18" y1="9" x2="22.5" y2="9" stroke="#0f172a" stroke-width="1.5" stroke-linecap="round" />
    <line x1="22.5" y1="3" x2="22.5" y2="15" stroke="#0f172a" stroke-width="1.5" stroke-linecap="round" />

    <!-- } close curly brace -->
    <path
      d="M27,1.5 C28.5,1.5 29.25,2.25 29.25,3.75 L29.25,7.5 C29.25,8.25 30,9 30,9 C30,9 29.25,9.75 29.25,10.5 L29.25,14.25 C29.25,15.75 28.5,16.5 27,16.5"
      stroke="#0f172a"
      stroke-width="1.2"
      stroke-linecap="round"
      fill="none"
    />
  </g>
</svg>
